<mxfile host="Electron" modified="2024-10-03T17:53:43.828Z" agent="Mozilla/5.0 (X11; Linux x86_64) AppleWebKit/537.36 (KHTML, like Gecko) draw.io/24.5.1 Chrome/124.0.6367.207 Electron/30.0.6 Safari/537.36" etag="Ziq5FYTGEvr2ukBaTZ7s" version="24.5.1" type="device">
  <diagram name="Page-1" id="wCpMV5eDOPrZCOF-e5NC">
    <mxGraphModel dx="1640" dy="1034" grid="0" gridSize="10" guides="1" tooltips="1" connect="1" arrows="1" fold="1" page="1" pageScale="1" pageWidth="850" pageHeight="1100" math="0" shadow="0">
      <root>
        <mxCell id="0" />
        <mxCell id="1" parent="0" />
        <mxCell id="6P7VYiUwT0Mc_DQqoP40-34" style="edgeStyle=orthogonalEdgeStyle;rounded=0;orthogonalLoop=1;jettySize=auto;html=1;exitX=0.5;exitY=1;exitDx=0;exitDy=0;" edge="1" parent="1" source="6P7VYiUwT0Mc_DQqoP40-5" target="6P7VYiUwT0Mc_DQqoP40-6">
          <mxGeometry relative="1" as="geometry" />
        </mxCell>
        <mxCell id="6P7VYiUwT0Mc_DQqoP40-5" value="" style="rounded=1;whiteSpace=wrap;html=1;absoluteArcSize=1;arcSize=14;strokeWidth=2;align=upperleft;" vertex="1" parent="1">
          <mxGeometry x="338" y="217" width="440" height="320" as="geometry" />
        </mxCell>
        <mxCell id="6P7VYiUwT0Mc_DQqoP40-22" style="edgeStyle=orthogonalEdgeStyle;rounded=0;orthogonalLoop=1;jettySize=auto;html=1;exitX=1;exitY=0.5;exitDx=0;exitDy=0;strokeWidth=3;noEdgeStyle=1;orthogonal=1;" edge="1" parent="1" source="6P7VYiUwT0Mc_DQqoP40-1" target="6P7VYiUwT0Mc_DQqoP40-5">
          <mxGeometry relative="1" as="geometry">
            <Array as="points">
              <mxPoint x="250" y="377" />
              <mxPoint x="326" y="377" />
            </Array>
          </mxGeometry>
        </mxCell>
        <mxCell id="6P7VYiUwT0Mc_DQqoP40-1" value="&lt;font style=&quot;font-size: 24px;&quot;&gt;Load data&lt;span style=&quot;background-color: initial;&quot;&gt;&amp;nbsp;&lt;/span&gt;&lt;/font&gt;" style="rounded=1;whiteSpace=wrap;html=1;absoluteArcSize=1;arcSize=14;strokeWidth=2;fillColor=#CCFFCC;" vertex="1" parent="1">
          <mxGeometry x="68" y="327" width="170" height="100" as="geometry" />
        </mxCell>
        <mxCell id="6P7VYiUwT0Mc_DQqoP40-33" style="edgeStyle=orthogonalEdgeStyle;rounded=0;orthogonalLoop=1;jettySize=auto;html=1;" edge="1" parent="1" source="6P7VYiUwT0Mc_DQqoP40-2" target="6P7VYiUwT0Mc_DQqoP40-7">
          <mxGeometry relative="1" as="geometry" />
        </mxCell>
        <mxCell id="6P7VYiUwT0Mc_DQqoP40-2" value="&lt;font style=&quot;font-size: 24px;&quot;&gt;Apply Data Mining methods for clustring&lt;/font&gt;" style="rounded=1;whiteSpace=wrap;html=1;absoluteArcSize=1;arcSize=14;strokeWidth=2;" vertex="1" parent="1">
          <mxGeometry x="801" y="622" width="250" height="100" as="geometry" />
        </mxCell>
        <mxCell id="6P7VYiUwT0Mc_DQqoP40-29" style="edgeStyle=orthogonalEdgeStyle;rounded=0;orthogonalLoop=1;jettySize=auto;html=1;entryX=0.5;entryY=0;entryDx=0;entryDy=0;" edge="1" parent="1" source="6P7VYiUwT0Mc_DQqoP40-3" target="6P7VYiUwT0Mc_DQqoP40-23">
          <mxGeometry relative="1" as="geometry" />
        </mxCell>
        <mxCell id="6P7VYiUwT0Mc_DQqoP40-3" value="&lt;span style=&quot;font-size: 24px;&quot;&gt;Feature selection&lt;/span&gt;" style="rounded=1;whiteSpace=wrap;html=1;absoluteArcSize=1;arcSize=14;strokeWidth=2;fillColor=#CCFFCC;" vertex="1" parent="1">
          <mxGeometry x="567" y="274" width="180" height="99" as="geometry" />
        </mxCell>
        <mxCell id="6P7VYiUwT0Mc_DQqoP40-28" style="edgeStyle=orthogonalEdgeStyle;rounded=0;orthogonalLoop=1;jettySize=auto;html=1;exitX=1;exitY=0.5;exitDx=0;exitDy=0;entryX=0;entryY=0.5;entryDx=0;entryDy=0;" edge="1" parent="1" source="6P7VYiUwT0Mc_DQqoP40-4" target="6P7VYiUwT0Mc_DQqoP40-3">
          <mxGeometry relative="1" as="geometry" />
        </mxCell>
        <mxCell id="6P7VYiUwT0Mc_DQqoP40-4" value="&lt;font style=&quot;font-size: 24px;&quot;&gt;Exploration&lt;/font&gt;" style="rounded=1;whiteSpace=wrap;html=1;absoluteArcSize=1;arcSize=14;strokeWidth=2;fillColor=#CCFFCC;" vertex="1" parent="1">
          <mxGeometry x="356" y="274" width="170" height="100" as="geometry" />
        </mxCell>
        <mxCell id="6P7VYiUwT0Mc_DQqoP40-31" style="edgeStyle=orthogonalEdgeStyle;rounded=0;orthogonalLoop=1;jettySize=auto;html=1;" edge="1" parent="1" source="6P7VYiUwT0Mc_DQqoP40-6" target="6P7VYiUwT0Mc_DQqoP40-2">
          <mxGeometry relative="1" as="geometry" />
        </mxCell>
        <mxCell id="6P7VYiUwT0Mc_DQqoP40-6" value="&lt;font style=&quot;font-size: 24px;&quot;&gt;Build the graph&lt;/font&gt;" style="rounded=1;whiteSpace=wrap;html=1;absoluteArcSize=1;arcSize=14;strokeWidth=2;" vertex="1" parent="1">
          <mxGeometry x="433" y="622" width="250" height="100" as="geometry" />
        </mxCell>
        <mxCell id="6P7VYiUwT0Mc_DQqoP40-32" style="edgeStyle=orthogonalEdgeStyle;rounded=0;orthogonalLoop=1;jettySize=auto;html=1;" edge="1" parent="1" source="6P7VYiUwT0Mc_DQqoP40-7" target="6P7VYiUwT0Mc_DQqoP40-8">
          <mxGeometry relative="1" as="geometry" />
        </mxCell>
        <mxCell id="6P7VYiUwT0Mc_DQqoP40-7" value="&lt;font style=&quot;font-size: 24px;&quot;&gt;Measure/&lt;/font&gt;&lt;div&gt;&lt;font style=&quot;font-size: 24px;&quot;&gt;Verification&lt;/font&gt;&lt;/div&gt;" style="rounded=1;whiteSpace=wrap;html=1;absoluteArcSize=1;arcSize=14;strokeWidth=2;" vertex="1" parent="1">
          <mxGeometry x="801" y="337" width="250" height="80" as="geometry" />
        </mxCell>
        <mxCell id="6P7VYiUwT0Mc_DQqoP40-8" value="&lt;font style=&quot;font-size: 24px;&quot;&gt;Report/&lt;/font&gt;&lt;div&gt;&lt;font style=&quot;font-size: 24px;&quot;&gt;Visualization&lt;/font&gt;&lt;/div&gt;" style="rounded=1;whiteSpace=wrap;html=1;absoluteArcSize=1;arcSize=14;strokeWidth=2;" vertex="1" parent="1">
          <mxGeometry x="1126" y="337" width="250" height="80" as="geometry" />
        </mxCell>
        <mxCell id="6P7VYiUwT0Mc_DQqoP40-23" value="&lt;span style=&quot;font-size: 24px;&quot;&gt;Remove outliers/Rescale the data/PCA&lt;/span&gt;" style="rounded=1;whiteSpace=wrap;html=1;absoluteArcSize=1;arcSize=14;strokeWidth=2;fillColor=default;" vertex="1" parent="1">
          <mxGeometry x="375" y="417" width="360" height="100" as="geometry" />
        </mxCell>
        <mxCell id="6P7VYiUwT0Mc_DQqoP40-25" value="&lt;font style=&quot;font-size: 24px;&quot;&gt;Preprocessing&amp;nbsp;&lt;/font&gt;" style="text;html=1;align=center;verticalAlign=middle;whiteSpace=wrap;rounded=0;" vertex="1" parent="1">
          <mxGeometry x="408" y="230" width="60" height="30" as="geometry" />
        </mxCell>
      </root>
    </mxGraphModel>
  </diagram>
</mxfile>
